<svg id="Layer_1" data-name="Layer 1" xmlns="http://www.w3.org/2000/svg" xmlns:xlink="http://www.w3.org/1999/xlink" viewBox="0 0 732.2 875.13"><defs><style>.cls-1{fill:none;}.cls-2{fill:#ffff2b;}.cls-3{clip-path:url(#clip-path);}.cls-4{fill:#2b9fa7;}.cls-5{fill:#fcd9c3;}.cls-6{fill:#fff;}.cls-7{fill:#763d22;}.cls-8{opacity:0.6;}.cls-9{clip-path:url(#clip-path-2);}.cls-10{opacity:0.2;}.cls-11{clip-path:url(#clip-path-3);}.cls-12{fill:#a66e4d;}.cls-13{clip-path:url(#clip-path-4);}.cls-14{opacity:0.4;}</style><clipPath id="clip-path" transform="translate(-233.9 -83.9)"><circle id="SVGID" class="cls-1" cx="600" cy="450" r="366.1"/></clipPath><clipPath id="clip-path-2" transform="translate(-233.9 -83.9)"><rect id="SVGID-2" data-name="SVGID" class="cls-1" x="309.19" y="237.22" width="142.95" height="745.51"/></clipPath><clipPath id="clip-path-3" transform="translate(-233.9 -83.9)"><rect id="SVGID-3" data-name="SVGID" class="cls-1" x="508.52" y="58.94" width="211.15" height="951.62"/></clipPath><clipPath id="clip-path-4" transform="translate(-233.9 -83.9)"><rect id="SVGID-4" data-name="SVGID" class="cls-1" x="493.32" y="177.72" width="226.51" height="853.18"/></clipPath></defs><title>perartin</title><circle class="cls-2" cx="366.1" cy="366.1" r="366.1"/><circle class="cls-1" cx="366.1" cy="366.1" r="366.1"/><g class="cls-3"><path class="cls-4" d="M641.86,440.88,607,411.66,601.43,407s38.06-63,52.33-70.14,40.41-12.49,40.41-12.49L720,359.62l25.86-35.26s26.17,5.35,40.44,12.49S838.64,407,838.64,407l-5.76,4.83-34.66,29.06-.07-.13-.19.13,8.22,116.51h.8c-1.3,1.61-7.62,9.65-9.65,19.64h-155c-2.05-10-8.35-18-9.67-19.64h1Z" transform="translate(-233.9 -83.9)"/><path class="cls-5" d="M818,557.39h14.5a84.26,84.26,0,0,1,1.85,19.86,34.12,34.12,0,0,1-8.47,21.47,27.22,27.22,0,0,1-5,4.51c-5.23,3.6-11.72,4.42-18.43-3.83-6-7.37-6.63-15.36-5.17-22.37,2-10,8.35-18,9.65-19.64Z" transform="translate(-233.9 -83.9)"/><path class="cls-4" d="M779.19,898.06H770L720,580.83v0l.61-3.76h76.69c-1.46,7-.8,15,5.17,22.37,6.71,8.25,13.2,7.43,18.43,3.83v0l13,294.81h-54.7Z" transform="translate(-233.9 -83.9)"/><polygon class="cls-5" points="598.62 473.49 584.12 473.49 573.08 473.49 572.28 473.49 564.05 356.98 564.25 356.85 564.32 356.98 598.98 327.92 598.98 473.49 598.62 473.49"/><path class="cls-6" d="M825.56,898.28v40c0,4.24-2.1,8.15-5.17,11.7-14,16.23-32.28,6.9-38-.79a15.47,15.47,0,0,1-3.18-9.36V898.06h46.37Z" transform="translate(-233.9 -83.9)"/><path class="cls-5" d="M762.36,256.77s22.29,5-2.7,24.82a55.62,55.62,0,0,0,2.84-17.69,53.6,53.6,0,0,0-.45-7.1Z" transform="translate(-233.9 -83.9)"/><path class="cls-5" d="M703.88,309.31c-10.62-5.08-19-15-23.26-27.45a55.84,55.84,0,0,1-2.93-18,58.91,58.91,0,0,1,.43-7.08c3-23.77,20.64-42.06,42-42.06s39,18.29,41.94,42a53.6,53.6,0,0,1,.45,7.1,55.62,55.62,0,0,1-2.84,17.69c-4.19,12.58-12.71,22.65-23.45,27.77a37.12,37.12,0,0,1-32.33-.05Z" transform="translate(-233.9 -83.9)"/><path class="cls-5" d="M745.89,324.36,720,359.62l-25.86-35.26s5,3.51,9.71-15.05a37.12,37.12,0,0,0,32.33.05C740.94,327.87,745.89,324.36,745.89,324.36Z" transform="translate(-233.9 -83.9)"/><path class="cls-4" d="M614.09,898.06h-7.9l13-294.53c5.15,3.34,11.48,3.89,18-4.13,6-7.37,6.64-15.36,5.18-22.37h77.12l.58,3.76v0L670.1,898.06h-56Z" transform="translate(-233.9 -83.9)"/><path class="cls-5" d="M677.59,256.77l.53.05a58.91,58.91,0,0,0-.43,7.08,55.84,55.84,0,0,0,2.93,18C655.1,261.83,677.59,256.77,677.59,256.77Z" transform="translate(-233.9 -83.9)"/><path class="cls-6" d="M660.46,898.28v40c0,4.24-2.1,8.15-5.17,11.7-14,16.23-32.28,6.9-38-.79a15.58,15.58,0,0,1-3.16-9.36V898.06h46.37Z" transform="translate(-233.9 -83.9)"/><path class="cls-5" d="M642.33,577c1.46,7,.8,15-5.18,22.37-6.51,8-12.84,7.47-18,4.13a26.41,26.41,0,0,1-5.42-4.81,34.16,34.16,0,0,1-8.46-21.47,84.7,84.7,0,0,1,1.84-19.86h25.54C634,559,640.28,567,642.33,577Z" transform="translate(-233.9 -83.9)"/><polygon class="cls-5" points="398.76 473.49 373.22 473.49 373.06 473.49 373.06 327.82 373.11 327.76 407.96 356.98 399.76 473.49 398.76 473.49"/><path class="cls-4" d="M384.57,494.33l-.35,1.14-31.11-11.89-22.95-8.78s32.26-76.35,41.86-86.87,52.84-18.05,52.84-18.05l26.43,36,26.42-36h0c1.43.25,43.4,7.7,52.83,18.05,9.58,10.52,41.84,86.87,41.84,86.87l-22.83,8.72-31.23,12-.35-1.14-.07,0,8.41,116.57H376.23l8.43-116.57Z" transform="translate(-233.9 -83.9)"/><path class="cls-5" d="M549.8,610.92a80.49,80.49,0,0,1,1.53,17.74,31.53,31.53,0,0,1-6.86,18.94c-4.21,5.19-10.49,9.62-17.16,2.75a19.48,19.48,0,0,1-1.82-2.16c-9-12.11-3.09-26.09,1-33a40.15,40.15,0,0,1,2.87-4.3v-.18h20.26Z" transform="translate(-233.9 -83.9)"/><path class="cls-5" d="M529.32,610.74v.18a40.15,40.15,0,0,0-2.87,4.3l-.11-4.3-8.41-116.57.07,0,.35,1.14,31.23-12V610.74Z" transform="translate(-233.9 -83.9)"/><path class="cls-4" d="M527.31,650.35l6,244.88H488.43L452.11,610.92h74.23l.11,4.3c-4.05,6.88-10,20.86-1,33A19.48,19.48,0,0,0,527.31,650.35Z" transform="translate(-233.9 -83.9)"/><path class="cls-6" d="M529.07,895.42v34.27c0,3.65-1.64,7-4.05,10-10.95,13.91-25.32,5.9-29.83-.66a14.16,14.16,0,0,1-2.48-8V895.23h36.36Z" transform="translate(-233.9 -83.9)"/><path class="cls-7" d="M455.74,247.3c46.4-2.39,62.83,101.67,40.12,111.59s-25.59-16.41-25.59-16.41a43.48,43.48,0,0,0,14.88-22.61c-34.19-21.07-40.49-57.45-40.49-57.45-16.12,3.07-28.75,18.69-30.59,38.22,0,0-18.4,3.89,1.75,19.23A44,44,0,0,0,429,341.11s4.71,12-12.83,14.09-21.9-38.08-18.42-57.36C401.61,276.44,408.67,249.72,455.74,247.3Z" transform="translate(-233.9 -83.9)"/><path class="cls-5" d="M485.15,319.87a43.48,43.48,0,0,1-14.88,22.61,33.71,33.71,0,0,1-9.31,5.1,31.05,31.05,0,0,1-20.58.13,34.17,34.17,0,0,1-11.36-6.6,44,44,0,0,1-13.2-21.24,50.93,50.93,0,0,1-2-14.24,45.68,45.68,0,0,1,.25-5c1.84-19.53,14.47-35.15,30.59-38.22C444.66,262.42,451,298.8,485.15,319.87Z" transform="translate(-233.9 -83.9)"/><path class="cls-5" d="M477.71,369.88l-26.42,36-26.43-36s11,2,15.47-22l.05-.16a31.05,31.05,0,0,0,20.58-.13l1.37.29C466.54,370.75,476.76,370,477.71,369.88Z" transform="translate(-233.9 -83.9)"/><path class="cls-4" d="M373.55,895.42h-4.3l6-245.57A20.4,20.4,0,0,0,377.8,647c9.52-12.77,2.4-27.59-1.63-34v0l.06-2h74.26l-36.33,284.5H373.55Z" transform="translate(-233.9 -83.9)"/><path class="cls-5" d="M413.82,305.63a50.93,50.93,0,0,0,2,14.24c-20.15-15.34-1.75-19.23-1.75-19.23A45.68,45.68,0,0,0,413.82,305.63Z" transform="translate(-233.9 -83.9)"/><path class="cls-6" d="M409.93,895.42v34.27c0,3.65-1.65,7-4.06,10-10.95,13.91-25.33,5.9-29.84-.66a14.16,14.16,0,0,1-2.48-8v-35.6Z" transform="translate(-233.9 -83.9)"/><path class="cls-5" d="M374.26,610.12l-.05.62h-21.1V483.58l31.11,11.89.35-1.14.09,0-8.43,116.57-.06,2C375.33,611.6,374.64,610.61,374.26,610.12Z" transform="translate(-233.9 -83.9)"/><path class="cls-5" d="M376.17,613c4,6.44,11.15,21.26,1.63,34a20.4,20.4,0,0,1-2.54,2.85c-6.4,5.85-12.37,1.57-16.44-3.44A31.55,31.55,0,0,1,352,627.49a80.68,80.68,0,0,1,1.36-16.75h20.9l.05-.62c.38.49,1.07,1.48,1.91,2.83Z" transform="translate(-233.9 -83.9)"/><g class="cls-8"><g class="cls-9"><g class="cls-10"><path d="M384.6,494.19l-.35,1.14-31.11-11.89-22.95-8.78s32.26-76.35,41.86-86.87,52.84-18.05,52.84-18.05l26.43,36,26.42-36h0c1.43.25,43.4,7.7,52.83,18.05,9.58,10.52,41.84,86.87,41.84,86.87l-22.83,8.72-31.23,11.95-.35-1.14-.07,0,8.41,116.57H376.26l8.43-116.57Z" transform="translate(-233.9 -83.9)"/><path d="M549.83,610.78a80.57,80.57,0,0,1,1.53,17.75,31.52,31.52,0,0,1-6.87,18.94c-4.21,5.19-10.48,9.61-17.15,2.74a19.32,19.32,0,0,1-1.82-2.15c-9-12.11-3.09-26.1,1-33a41.51,41.51,0,0,1,2.87-4.3v-.18h20.26Z" transform="translate(-233.9 -83.9)"/><path d="M529.35,610.6v.18a41.51,41.51,0,0,0-2.87,4.3l-.11-4.3L518,494.21l.07,0,.35,1.14,31.23-11.95V610.6Z" transform="translate(-233.9 -83.9)"/><path d="M527.34,650.21l6,244.88H488.46L452.14,610.78h74.23l.11,4.3c-4.05,6.88-10,20.87-1,33A19.32,19.32,0,0,0,527.34,650.21Z" transform="translate(-233.9 -83.9)"/><path d="M529.1,895.29v34.26c0,3.65-1.64,7-4.05,10-10.95,13.91-25.32,5.9-29.83-.66a14.13,14.13,0,0,1-2.48-8v-35.8H529.1Z" transform="translate(-233.9 -83.9)"/><path d="M455.76,247.16c46.41-2.39,62.84,101.68,40.13,111.59s-25.59-16.41-25.59-16.41a43.47,43.47,0,0,0,14.87-22.61c-34.19-21.06-40.48-57.45-40.48-57.45-16.12,3.07-28.75,18.69-30.59,38.22,0,0-18.4,3.89,1.75,19.23A43.9,43.9,0,0,0,429.05,341s4.71,12-12.83,14.09S394.32,317,397.8,297.7C401.63,276.3,408.7,249.58,455.76,247.16Z" transform="translate(-233.9 -83.9)"/><path d="M485.17,319.73a43.47,43.47,0,0,1-14.87,22.61,33.85,33.85,0,0,1-9.31,5.1,31.18,31.18,0,0,1-10.49,1.82,30.79,30.79,0,0,1-10.09-1.69,34.17,34.17,0,0,1-11.36-6.6,43.9,43.9,0,0,1-13.2-21.24,50.91,50.91,0,0,1-2-14.23,45.74,45.74,0,0,1,.25-5c1.84-19.53,14.47-35.15,30.59-38.22C444.69,262.28,451,298.67,485.17,319.73Z" transform="translate(-233.9 -83.9)"/><path d="M477.74,369.74l-26.42,36-26.43-36s11,2,15.46-22l.06-.16a30.79,30.79,0,0,0,10.09,1.69A31.18,31.18,0,0,0,461,347.44l1.37.29C466.57,370.61,476.79,369.86,477.74,369.74Z" transform="translate(-233.9 -83.9)"/><path d="M373.58,895.29h-4.3l6-245.58a19.76,19.76,0,0,0,2.53-2.85c9.53-12.77,2.41-27.59-1.62-34v0l.06-2h74.26L414.19,895.29H373.58Z" transform="translate(-233.9 -83.9)"/><path d="M413.85,305.5a50.91,50.91,0,0,0,2,14.23c-20.15-15.34-1.75-19.23-1.75-19.23A45.74,45.74,0,0,0,413.85,305.5Z" transform="translate(-233.9 -83.9)"/><path d="M410,895.29v34.26c0,3.65-1.66,7-4.06,10-10.95,13.91-25.33,5.9-29.84-.66a14.13,14.13,0,0,1-2.48-8v-35.6Z" transform="translate(-233.9 -83.9)"/><path d="M374.29,610l-.05.62h-21.1V483.44l31.11,11.89.35-1.14.09,0-8.43,116.57-.06,2C375.36,611.46,374.67,610.48,374.29,610Z" transform="translate(-233.9 -83.9)"/><path d="M376.2,612.83c4,6.44,11.15,21.26,1.62,34a19.76,19.76,0,0,1-2.53,2.85c-6.4,5.85-12.38,1.57-16.44-3.44A31.53,31.53,0,0,1,352,627.35a80.73,80.73,0,0,1,1.36-16.75h20.9l.05-.62c.38.5,1.07,1.48,1.91,2.83Z" transform="translate(-233.9 -83.9)"/></g></g></g><g class="cls-8"><g class="cls-11"><polygon class="cls-1" points="486.36 497.02 486.96 493.26 485.77 493.26 486.36 497.02"/><path class="cls-10" d="M720.26,580.92l-.59-3.76h1.19Z" transform="translate(-233.9 -83.9)"/></g></g><path class="cls-12" d="M675.94,245.31c.41-1.74,1.12-3.39,1.42-5.15.39-2.27.06-4.59.16-6.89a18.35,18.35,0,0,1,3.7-10.18,8.94,8.94,0,0,1,2.73-2.54c2.23-1.24,5-1,7.41-1.78,3-1,5.16-3.5,7.64-5.44a16.76,16.76,0,0,1,10.46-3.84c2,0,4,.54,6,.57,3.24,0,6.36-1.16,9.51-1.95s6.67-1.13,9.5.48c3.63,2.08,5.21,6.88,9,8.54,2,.84,4.15.71,6.27.87a16.87,16.87,0,0,1,8.55,2.85,11.2,11.2,0,0,1,4.73,7.5c.33,2.62-.45,5.31,0,7.91a52.79,52.79,0,0,0,1.8,5.22c1.26,4.12.3,8.56-.67,12.77-.54,2.36-1.25,5-3.28,6.29a17.52,17.52,0,0,1-4.16-10.71,5.63,5.63,0,0,0-.38-2.42c-.7-1.34-2.41-1.7-3.67-2.54-4-2.64-2.86-9.41-6.62-12.34a28.63,28.63,0,0,0-3.45-1.87c-2.59-1.5-4.33-4.28-7.06-5.49s-6-.59-9.05-.73c-5.54-.27-10.92-3.2-16.38-2.25-3.72.65-6.88,3-9.78,5.43q-5.17,4.32-9.91,9.13c-1.13,1.16-2.32,2.53-2.23,4.15,0,.79.41,1.54.43,2.34,0,1.89-1.78,3.21-3.27,4.37a23.81,23.81,0,0,0-4.89,5.23c-1,1.45-2.12,5.36-3.49,5.87A23.94,23.94,0,0,1,675.94,245.31Z" transform="translate(-233.9 -83.9)"/><g class="cls-8"><g class="cls-13"><g class="cls-8"><polygon class="cls-1" points="486.51 493.32 486.53 493.19 485.34 493.19 485.93 496.95 486.03 496.31 485.57 493.32 486.51 493.32"/><polygon points="485.57 493.32 486.03 496.31 486.16 497.08 486.76 493.32 486.51 493.32 485.57 493.32"/><polygon class="cls-10" points="485.57 493.32 486.03 496.31 486.16 497.08 486.76 493.32 486.51 493.32 485.57 493.32"/><path class="cls-14" d="M832.67,557.46V411.89l5.76-4.84s-38-63-52.31-70.14-40.43-12.49-40.43-12.49-5,3.52-9.69-15c10.74-5.12,19.26-15.19,23.46-27.77,21.59-17.14,7.88-23.2,3.76-24.52a22.25,22.25,0,0,0,.8-2.84c1-4.19,1.93-8.63.68-12.77a46.44,46.44,0,0,1-1.82-5.2c-.48-2.61.3-5.3,0-7.92a11.09,11.09,0,0,0-4.72-7.49,16.94,16.94,0,0,0-8.56-2.86c-2.11-.16-4.32,0-6.26-.87-3.84-1.66-5.43-6.46-9.06-8.54-2.82-1.61-6.34-1.27-9.49-.47s-6.26,2-9.51,2c-2,0-4-.54-6-.57a16.64,16.64,0,0,0-10.47,3.83c-2.48,1.94-4.66,4.46-7.64,5.46-2.42.8-5.19.52-7.41,1.76a9.06,9.06,0,0,0-2.73,2.54,18.35,18.35,0,0,0-3.7,10.18c-.1,2.3.22,4.62-.16,6.9-.3,1.75-1,3.41-1.42,5.14a23.9,23.9,0,0,0,.53,11.79c-4.21,1.37-17.83,7.52,4.14,24.77,4.21,12.41,12.65,22.37,23.26,27.45C699,327.94,694,324.42,694,324.42s-26.14,5.35-40.41,12.49-52.33,70.14-52.33,70.14l5.58,4.67,0,.06V557.46h.16a84.58,84.58,0,0,0-1.84,19.85,34.16,34.16,0,0,0,8.46,21.47,26.67,26.67,0,0,0,5.42,4.81L606,898.12h7.91v41.81a15.57,15.57,0,0,0,3.15,9.36c5.76,7.69,24.08,17,38,.79,3.07-3.55,5.18-7.46,5.18-11.7V898.12h9.63l49.94-317.23,49.93,317.23H779v41.81a15.47,15.47,0,0,0,3.18,9.36c5.74,7.69,24.06,17,38,.79,3.07-3.55,5.18-7.46,5.18-11.7V898.12h8.33l-13-294.81v0a26.9,26.9,0,0,0,5-4.51,34.13,34.13,0,0,0,8.48-21.47,84.77,84.77,0,0,0-1.86-19.85ZM720.06,581l-.13-.77-.1.64-.59-3.76h1.19l0,.13h.25Z" transform="translate(-233.9 -83.9)"/></g></g></g></g></svg>