<?xml version="1.0" encoding="utf-8"?>
<!-- Generator: Adobe Illustrator 25.0.0, SVG Export Plug-In . SVG Version: 6.00 Build 0)  -->
<svg version="1.1" id="Layer_1" xmlns="http://www.w3.org/2000/svg" xmlns:xlink="http://www.w3.org/1999/xlink" x="0px" y="0px"
	 viewBox="0 0 732.2 875.13" style="enable-background:new 0 0 732.2 875.13;" xml:space="preserve">
<style type="text/css">
	.st0{fill:#FFFF2B;}
	.st1{fill:none;}
	.st2{clip-path:url(#SVGID_2_);}
	.st3{fill:#2B9FA7;}
	.st4{fill:#FCD9C3;}
	.st5{fill:#FFFFFF;}
	.st6{fill:#763D22;}
	.st7{opacity:0.6;}
	.st8{clip-path:url(#SVGID_4_);}
	.st9{opacity:0.2;}
	.st10{clip-path:url(#SVGID_6_);}
	.st11{opacity:0.2;enable-background:new    ;}
	.st12{fill:#A66E4D;}
	.st13{clip-path:url(#SVGID_8_);}
	.st14{opacity:0.4;enable-background:new    ;}
</style>
<circle class="st0" cx="366.42" cy="437.57" r="366.1"/>
<circle class="st1" cx="366.1" cy="366.1" r="366.1"/>
<g>
	<defs>
		<ellipse id="SVGID_1_" cx="366.42" cy="437.57" rx="365.94" ry="366.1"/>
	</defs>
	<clipPath id="SVGID_2_">
		<use xlink:href="#SVGID_1_"  style="overflow:visible;"/>
	</clipPath>
	<g class="st2">
		<path class="st3" d="M408.26,428.45l-34.84-29.22l-5.57-4.66c0,0,38.04-63,52.31-70.14c14.26-7.14,40.39-12.49,40.39-12.49
			l25.82,35.25l25.85-35.26c0,0,26.16,5.35,40.42,12.49c14.26,7.14,52.32,70.15,52.32,70.15l-5.76,4.83l-34.64,29.06l-0.07-0.13
			l-0.19,0.13l8.22,116.51h0.8c-1.3,1.61-7.62,9.65-9.65,19.64H408.73c-2.05-10-8.35-18-9.67-19.64h1L408.26,428.45z"/>
		<path class="st4" d="M584.32,544.96h14.49c1.4,6.52,2.02,13.19,1.85,19.86c-0.24,7.92-3.24,15.51-8.47,21.47
			c-1.47,1.7-3.15,3.22-5,4.51c-5.23,3.6-11.71,4.42-18.42-3.83c-6-7.37-6.63-15.36-5.17-22.37c2-10,8.35-18,9.65-19.64
			L584.32,544.96z"/>
		<path class="st3" d="M545.53,885.62h-9.19L486.37,568.4l0,0l0.61-3.76h76.66c-1.46,7-0.8,15,5.17,22.37
			c6.71,8.25,13.19,7.43,18.42,3.83l0,0l12.99,294.81h-54.68L545.53,885.62z"/>
		<polygon class="st4" points="598.84,544.96 584.34,544.96 573.31,544.96 572.51,544.96 564.28,428.45 564.48,428.32 
			564.55,428.45 599.2,399.39 599.2,544.96 		"/>
		<path class="st5" d="M591.88,885.85v40c0,4.24-2.1,8.15-5.17,11.7c-13.99,16.23-32.27,6.9-37.98-0.79
			c-2.05-2.69-3.17-5.98-3.18-9.36v-41.77h46.35L591.88,885.85z"/>
		<path class="st4" d="M528.71,244.34c0,0,22.28,5-2.7,24.82c1.9-5.7,2.85-11.68,2.84-17.69c0.01-2.37-0.14-4.75-0.45-7.1
			L528.71,244.34z"/>
		<path class="st4" d="M470.25,296.88c-10.62-5.08-18.99-15-23.25-27.45c-1.96-5.8-2.95-11.88-2.93-18c0-2.37,0.14-4.73,0.43-7.08
			c3-23.77,20.63-42.06,41.98-42.06c21.35,0,38.98,18.29,41.92,42c0.31,2.35,0.46,4.73,0.45,7.1c0.02,6.01-0.94,11.99-2.84,17.69
			c-4.19,12.58-12.7,22.65-23.44,27.77c-10.21,4.92-22.12,4.91-32.32-0.05L470.25,296.88z"/>
		<path class="st4" d="M512.25,311.92l-25.88,35.26l-25.85-35.26c0,0,5,3.51,9.71-15.05c10.2,4.96,22.1,4.97,32.32,0.05
			C507.3,315.43,512.25,311.92,512.25,311.92z"/>
		<path class="st3" d="M380.5,885.62h-7.9L385.6,591.1c5.15,3.34,11.47,3.89,17.99-4.13c6-7.37,6.64-15.36,5.18-22.37h77.09
			l0.58,3.76l0,0l-49.95,317.27H380.5L380.5,885.62z"/>
		<path class="st4" d="M443.98,244.34l0.53,0.05c-0.29,2.35-0.43,4.71-0.43,7.08c-0.02,6.12,0.97,12.2,2.93,18
			C421.5,249.4,443.98,244.34,443.98,244.34z"/>
		<path class="st5" d="M426.85,885.85v40c0,4.24-2.1,8.15-5.17,11.7c-13.99,16.23-32.27,6.9-37.98-0.79
			c-2.04-2.69-3.15-5.98-3.16-9.36v-41.77h46.35L426.85,885.85z"/>
		<path class="st4" d="M408.73,564.57c1.46,7,0.8,15-5.18,22.37c-6.51,8-12.83,7.47-17.99,4.13c-2.02-1.35-3.84-2.97-5.42-4.81
			c-5.22-5.96-8.21-13.55-8.46-21.47c-0.17-6.67,0.45-13.34,1.84-19.86h25.53C400.41,546.57,406.68,554.57,408.73,564.57z"/>
		<polygon class="st4" points="399.07,544.96 373.54,544.96 373.38,544.96 373.38,399.29 373.43,399.23 408.26,428.45 
			400.07,544.96 		"/>
		<path class="st3" d="M151.08,481.9l-0.35,1.14l-31.1-11.89l-22.94-8.78c0,0,32.25-76.35,41.84-86.87s52.82-18.05,52.82-18.05
			l26.42,36l26.41-36l0,0c1.43,0.25,43.38,7.7,52.81,18.05c9.58,10.52,41.82,86.87,41.82,86.87l-22.82,8.72l-31.22,12l-0.35-1.14
			h-0.07l8.41,116.57H142.75l8.43-116.57L151.08,481.9z"/>
		<path class="st4" d="M316.24,598.48c1.16,5.84,1.68,11.79,1.53,17.74c-0.15,6.89-2.56,13.55-6.86,18.94
			c-4.21,5.19-10.49,9.62-17.15,2.75c-0.66-0.67-1.27-1.4-1.82-2.16c-9-12.11-3.09-26.09,1-33c0.86-1.49,1.82-2.93,2.87-4.3v-0.18
			h20.25L316.24,598.48z"/>
		<path class="st4" d="M295.77,598.3v0.18c-1.05,1.37-2.01,2.81-2.87,4.3l-0.11-4.3l-8.41-116.57h0.07l0.35,1.14l31.22-12V598.3
			H295.77z"/>
		<path class="st3" d="M293.76,637.91l6,244.88H254.9l-36.3-284.31h74.2l0.11,4.3c-4.05,6.88-10,20.86-1,33
			C292.47,636.54,293.09,637.25,293.76,637.91z"/>
		<path class="st5" d="M295.52,882.98v34.27c0,3.65-1.64,7-4.05,10c-10.95,13.91-25.31,5.9-29.82-0.66c-1.61-2.36-2.48-5.14-2.48-8
			v-35.8h36.34V882.98z"/>
		<path class="st6" d="M222.22,234.87c46.38-2.39,62.8,101.67,40.1,111.59s-25.58-16.41-25.58-16.41
			c7.24-5.76,12.45-13.68,14.87-22.61c-34.18-21.07-40.47-57.45-40.47-57.45c-16.11,3.07-28.74,18.69-30.58,38.22
			c0,0-18.39,3.89,1.75,19.23c2.25,8.21,6.82,15.58,13.17,21.24c0,0,4.71,12-12.82,14.09s-21.89-38.08-18.41-57.36
			C168.12,264.01,175.17,237.29,222.22,234.87z"/>
		<path class="st4" d="M251.62,307.43c-2.43,8.93-7.64,16.85-14.87,22.61c-2.81,2.18-5.95,3.9-9.31,5.1
			c-6.64,2.38-13.9,2.43-20.57,0.13c-4.18-1.44-8.03-3.69-11.36-6.6c-6.36-5.65-10.94-13.03-13.19-21.24
			c-1.34-4.63-2.01-9.42-2-14.24c-0.01-1.67,0.08-3.34,0.25-5c1.84-19.53,14.46-35.15,30.58-38.22
			C211.15,249.99,217.49,286.36,251.62,307.43z"/>
		<path class="st4" d="M244.18,357.45l-26.41,36l-26.42-36c0,0,11,2,15.46-22l0.05-0.16c6.67,2.3,13.93,2.25,20.57-0.13l1.37,0.29
			C233.02,358.32,243.23,357.57,244.18,357.45z"/>
		<path class="st3" d="M140.07,882.98h-4.3l6-245.57c0.94-0.87,1.79-1.82,2.55-2.85c9.52-12.77,2.4-27.59-1.63-34l0,0l0.06-2h74.23
			l-36.31,284.5h-40.59V882.98z"/>
		<path class="st4" d="M180.32,293.2c-0.01,4.82,0.66,9.61,2,14.24c-20.14-15.34-1.75-19.23-1.75-19.23
			C180.4,289.86,180.31,291.53,180.32,293.2z"/>
		<path class="st5" d="M176.43,882.98v34.27c0,3.65-1.65,7-4.06,10c-10.95,13.91-25.32,5.9-29.83-0.66c-1.61-2.36-2.48-5.14-2.48-8
			V883L176.43,882.98z"/>
		<path class="st4" d="M140.78,597.68l-0.05,0.62h-21.09V471.15l31.1,11.89l0.35-1.14h0.09l-8.43,116.57l-0.06,2
			C141.85,599.16,141.16,598.17,140.78,597.68z"/>
		<path class="st4" d="M142.69,600.57c4,6.44,11.15,21.26,1.63,34c-0.76,1.03-1.61,1.98-2.54,2.85c-6.4,5.85-12.36,1.57-16.43-3.44
			c-4.27-5.39-6.67-12.04-6.82-18.92c-0.13-5.62,0.32-11.23,1.36-16.75h20.89l0.05-0.62c0.38,0.49,1.07,1.48,1.91,2.83
			L142.69,600.57z"/>
		<g class="st7">
			<g>
				<defs>
					<rect id="SVGID_3_" x="75.74" y="224.79" width="142.89" height="745.51"/>
				</defs>
				<clipPath id="SVGID_4_">
					<use xlink:href="#SVGID_3_"  style="overflow:visible;"/>
				</clipPath>
				<g class="st8">
					<g class="st9">
						<path d="M151.11,481.76l-0.35,1.14l-31.1-11.89l-22.94-8.78c0,0,32.25-76.35,41.84-86.87s52.82-18.05,52.82-18.05l26.42,36
							l26.41-36l0,0c1.43,0.25,43.38,7.7,52.81,18.05c9.58,10.52,41.82,86.87,41.82,86.87l-22.82,8.72l-31.22,11.95l-0.35-1.14
							h-0.07l8.41,116.57H142.78l8.43-116.57H151.11z"/>
						<path d="M316.27,598.35c1.16,5.84,1.68,11.79,1.53,17.75c-0.16,6.89-2.57,13.55-6.87,18.94c-4.21,5.19-10.48,9.61-17.14,2.74
							c-0.66-0.67-1.27-1.39-1.82-2.15c-9-12.11-3.09-26.1,1-33c0.87-1.49,1.82-2.93,2.87-4.3v-0.18h20.25L316.27,598.35z"/>
						<path d="M295.8,598.16v0.18c-1.04,1.37-2,2.81-2.87,4.3l-0.11-4.3l-8.37-116.57h0.07l0.35,1.14l31.22-11.95v127.2H295.8z"/>
						<path d="M293.79,637.78l6,244.88h-44.86l-36.3-284.31h74.2l0.11,4.3c-4.05,6.88-10,20.87-1,33
							C292.5,636.4,293.12,637.11,293.79,637.78z"/>
						<path d="M295.55,882.85v34.26c0,3.65-1.64,7-4.05,10c-10.95,13.91-25.31,5.9-29.82-0.66c-1.62-2.35-2.48-5.14-2.48-8v-35.8
							h36.34V882.85z"/>
						<path d="M222.24,234.73c46.39-2.39,62.81,101.68,40.11,111.59s-25.58-16.41-25.58-16.41c7.23-5.76,12.44-13.68,14.86-22.61
							c-34.18-21.06-40.46-57.45-40.46-57.45c-16.11,3.07-28.74,18.69-30.58,38.22c0,0-18.39,3.89,1.75,19.23
							c2.24,8.22,6.83,15.61,13.19,21.27c0,0,4.71,12-12.82,14.09s-21.89-38.09-18.41-57.39
							C168.14,263.86,175.2,237.15,222.24,234.73z"/>
						<path d="M251.64,307.3c-2.42,8.93-7.63,16.85-14.86,22.61c-2.81,2.18-5.96,3.9-9.31,5.1c-3.36,1.2-6.91,1.82-10.49,1.82
							c-3.43,0-6.84-0.57-10.09-1.69c-4.18-1.44-8.03-3.69-11.36-6.6c-6.36-5.65-10.95-13.03-13.19-21.24
							c-1.34-4.62-2.01-9.42-2-14.23c-0.01-1.67,0.08-3.34,0.25-5c1.84-19.53,14.46-35.15,30.58-38.22
							C211.18,249.85,217.49,286.24,251.64,307.3z"/>
						<path d="M244.21,357.3l-26.41,36l-26.42-36c0,0,11,2,15.45-22l0.06-0.16c3.24,1.12,6.65,1.69,10.09,1.69
							c3.58,0,7.13-0.62,10.5-1.83l1.37,0.29C233.05,358.17,243.26,357.42,244.21,357.3z"/>
						<path d="M140.1,882.85h-4.3l6-245.58c0.93-0.87,1.78-1.82,2.53-2.85c9.53-12.77,2.41-27.59-1.62-34l0,0l0.06-2H217
							l-36.3,284.43H140.1z"/>
						<path d="M180.35,293.07c-0.01,4.81,0.66,9.61,2,14.23c-20.14-15.34-1.75-19.23-1.75-19.23
							C180.43,289.73,180.34,291.4,180.35,293.07z"/>
						<path d="M176.5,882.85v34.26c0,3.65-1.66,7-4.06,10c-10.95,13.91-25.32,5.9-29.83-0.66c-1.62-2.35-2.48-5.14-2.48-8v-35.6
							L176.5,882.85z"/>
						<path d="M140.81,597.57l-0.05,0.62h-21.09V471.01l31.1,11.89l0.35-1.14h0.09l-8.43,116.57l-0.06,2
							C141.88,599.03,141.19,598.04,140.81,597.57z"/>
						<path d="M142.72,600.4c4,6.44,11.15,21.26,1.62,34c-0.75,1.03-1.6,1.98-2.53,2.85c-6.4,5.85-12.37,1.57-16.43-3.44
							c-4.28-5.38-6.68-12.01-6.85-18.89c-0.13-5.62,0.33-11.23,1.36-16.75h20.89l0.05-0.62c0.38,0.5,1.07,1.48,1.91,2.83
							L142.72,600.4z"/>
					</g>
				</g>
			</g>
		</g>
		<g class="st7">
			<g>
				<defs>
					<rect id="SVGID_5_" x="274.98" y="46.51" width="211.06" height="951.62"/>
				</defs>
				<clipPath id="SVGID_6_">
					<use xlink:href="#SVGID_5_"  style="overflow:visible;"/>
				</clipPath>
				<g class="st10">
					<polygon class="st1" points="486.63,568.48 487.23,564.73 486.04,564.73 					"/>
					<path class="st11" d="M486.63,568.48l-0.59-3.76h1.19L486.63,568.48z"/>
				</g>
			</g>
		</g>
		<path class="st12" d="M442.33,232.88c0.41-1.74,1.12-3.39,1.42-5.15c0.39-2.27,0.06-4.59,0.16-6.89c0.18-3.69,1.47-7.24,3.7-10.18
			c0.72-1.03,1.65-1.89,2.73-2.54c2.23-1.24,5-1,7.41-1.78c3-1,5.16-3.5,7.64-5.44c2.95-2.44,6.63-3.79,10.46-3.84
			c2,0,4,0.54,6,0.57c3.24,0,6.36-1.16,9.51-1.95s6.67-1.13,9.5,0.48c3.63,2.08,5.21,6.88,9,8.54c2,0.84,4.15,0.71,6.27,0.87
			c3.05,0.16,6.01,1.14,8.55,2.85c2.54,1.74,4.25,4.46,4.73,7.5c0.33,2.62-0.45,5.31,0,7.91c0.51,1.77,1.11,3.51,1.8,5.22
			c1.26,4.12,0.3,8.56-0.67,12.77c-0.54,2.36-1.25,5-3.28,6.29c-2.55-3-4.01-6.77-4.16-10.71c0.05-0.82-0.08-1.65-0.38-2.42
			c-0.7-1.34-2.41-1.7-3.67-2.54c-4-2.64-2.86-9.41-6.62-12.34c-1.11-0.7-2.26-1.33-3.45-1.87c-2.59-1.5-4.33-4.28-7.06-5.49
			s-6-0.59-9.05-0.73c-5.54-0.27-10.92-3.2-16.37-2.25c-3.72,0.65-6.88,3-9.78,5.43c-3.45,2.88-6.75,5.92-9.91,9.13
			c-1.13,1.16-2.32,2.53-2.23,4.15c0,0.79,0.41,1.54,0.43,2.34c0,1.89-1.78,3.21-3.27,4.37c-1.88,1.49-3.53,3.25-4.89,5.23
			c-1,1.45-2.12,5.36-3.49,5.87C441.73,242,441.38,237.35,442.33,232.88z"/>
		<g class="st7">
			<g>
				<defs>
					<rect id="SVGID_7_" x="259.79" y="165.29" width="226.41" height="853.18"/>
				</defs>
				<clipPath id="SVGID_8_">
					<use xlink:href="#SVGID_7_"  style="overflow:visible;"/>
				</clipPath>
				<g class="st13">
					<g class="st7">
						<polygon class="st1" points="486.78,564.79 486.8,564.66 485.61,564.66 486.2,568.42 486.3,567.78 485.84,564.79 						"/>
						<polygon points="485.84,564.79 486.3,567.78 486.43,568.54 487.03,564.79 486.78,564.79 						"/>
						<polygon class="st11" points="485.84,564.79 486.3,567.78 486.43,568.54 487.03,564.79 486.78,564.79 						"/>
						<path class="st14" d="M598.99,545.03V399.46l5.76-4.84c0,0-37.98-63-52.29-70.14c-14.3-7.14-40.41-12.49-40.41-12.49
							s-5,3.52-9.69-15c10.74-5.12,19.25-15.19,23.45-27.77c21.58-17.14,7.88-23.2,3.76-24.52c0.33-0.93,0.6-1.88,0.8-2.84
							c1-4.19,1.93-8.63,0.68-12.77c-0.71-1.7-1.32-3.43-1.82-5.2c-0.48-2.61,0.3-5.3,0-7.92c-0.47-3.04-2.17-5.76-4.72-7.49
							c-2.54-1.71-5.5-2.7-8.56-2.86c-2.11-0.16-4.32,0-6.26-0.87c-3.84-1.66-5.43-6.46-9.06-8.54c-2.82-1.61-6.34-1.27-9.49-0.47
							s-6.26,2-9.51,2c-2,0-4-0.54-6-0.57c-3.82,0.03-7.52,1.39-10.47,3.83c-2.48,1.94-4.66,4.46-7.64,5.46
							c-2.42,0.8-5.19,0.52-7.41,1.76c-1.08,0.65-2.01,1.51-2.73,2.54c-2.23,2.94-3.52,6.49-3.7,10.18c-0.1,2.3,0.22,4.62-0.16,6.9
							c-0.3,1.75-1,3.41-1.42,5.14c-0.81,3.91-0.63,7.97,0.53,11.79c-4.21,1.37-17.82,7.52,4.14,24.77
							c4.21,12.41,12.64,22.37,23.25,27.45c-4.68,18.52-9.68,15-9.68,15s-26.13,5.35-40.39,12.49s-52.31,70.14-52.31,70.14
							l5.58,4.67v0.06v145.68h0.16c-1.39,6.52-2.01,13.18-1.84,19.85c0.24,7.92,3.23,15.51,8.46,21.47c1.58,1.84,3.4,3.46,5.42,4.81
							l-13.03,294.53h7.91v41.81c0.01,3.38,1.11,6.66,3.15,9.36c5.76,7.69,24.07,17,37.98,0.79c3.07-3.55,5.18-7.46,5.18-11.7
							v-40.26h9.63l49.92-317.23l49.91,317.23h9.26v41.81c0.01,3.38,1.12,6.67,3.18,9.36c5.74,7.69,24.05,17,37.98,0.79
							c3.07-3.55,5.18-7.46,5.18-11.7v-40.26h8.33l-12.99-294.81l0,0c1.85-1.29,3.53-2.8,5-4.51c5.23-5.95,8.23-13.55,8.48-21.47
							c0.16-6.67-0.46-13.33-1.86-19.85L598.99,545.03z M486.43,568.57l-0.13-0.77l-0.1,0.64l-0.59-3.76h1.19v0.13h0.25
							L486.43,568.57z"/>
					</g>
				</g>
			</g>
		</g>
	</g>
</g>
</svg>
