<svg id="Layer_1" data-name="Layer 1" xmlns="http://www.w3.org/2000/svg" viewBox="0 0 25.71 25.71"><title>INMOTIONWEB_ikonat</title><circle cx="12.85" cy="12.85" r="12.85"/><path d="M15.92,9.13h0a.67.67,0,0,1,.67.69.69.69,0,0,1-1.37,0A.7.7,0,0,1,15.92,9.13Z"/><path d="M18.49,10a36.19,36.19,0,0,1-.12,6.14,2.93,2.93,0,0,1-2.52,2.28,27.93,27.93,0,0,1-3.15.13,19.06,19.06,0,0,1-3.17-.17A2.86,2.86,0,0,1,7.26,15.9a31.14,31.14,0,0,1,.11-6.4A2.89,2.89,0,0,1,9.85,7.28a21.36,21.36,0,0,1,2.86-.13c1.07,0,2.14,0,2.79.06a3.19,3.19,0,0,1,2.08.86A3,3,0,0,1,18.49,10Zm-1.1,5.7a38.88,38.88,0,0,0,.07-5.6,1.92,1.92,0,0,0-1.71-1.82,27.18,27.18,0,0,0-2.85-.11c-1.13,0-2.27,0-2.76.09A2,2,0,0,0,8.31,10a38.33,38.33,0,0,0,0,5.76,1.83,1.83,0,0,0,1.4,1.61,18.13,18.13,0,0,0,3.07.17c1.2,0,2.37,0,2.82-.09a2,2,0,0,0,1.82-1.73" style="fill:#f7ec32"/><path d="M12.88,9.93a2.9,2.9,0,0,1,2.9,2.93,3,3,0,0,1-2.95,2.92,2.9,2.9,0,0,1-2.9-2.93A3,3,0,0,1,12.88,9.93Zm0,4.82a1.91,1.91,0,0,0,1.9-1.88A1.87,1.87,0,0,0,12.88,11h0A1.92,1.92,0,0,0,11,12.84a1.87,1.87,0,0,0,1.86,1.91h0" style="fill:#f7ec32"/></svg>